<svg width="226" height="226" viewBox="0 0 226 226" fill="none" xmlns="http://www.w3.org/2000/svg">
<g id="Group Copy 3">
<path id="Fill 204" fill-rule="evenodd" clip-rule="evenodd" d="M113 0C50.5924 0 0 50.5916 0 113H32.2868C32.2868 68.423 68.4236 32.2857 113 32.2857V0Z" fill="#D4DDE8"/>
<path id="Fill 205" fill-rule="evenodd" clip-rule="evenodd" d="M161.6 113C161.6 139.84 139.844 161.6 113.001 161.6C86.1607 161.6 64.4012 139.84 64.4012 113H32C32 157.735 68.2664 194 113.001 194C157.738 194 194 157.735 194 113H161.6Z" fill="#829CBE"/>
<path id="Fill 206" fill-rule="evenodd" clip-rule="evenodd" d="M113 64C86.4911 64 65 85.9357 65 113H113H161C161 85.9357 139.512 64 113 64" fill="#829CBE"/>
<path id="Fill 207" fill-rule="evenodd" clip-rule="evenodd" d="M193.818 113C193.818 157.576 157.801 193.713 113.365 193.713C91.2892 193.713 71.2943 184.793 56.7567 170.351L34 193.181C54.3605 213.466 82.4023 226 113.365 226C175.572 226 226 175.408 226 113H193.818Z" fill="#D4DDE8"/>
</g>
</svg>
