<svg width="25" height="25" viewBox="0 0 25 25" fill="none" xmlns="http://www.w3.org/2000/svg">
<g id="calendar-2">
<path id="Shape" fill-rule="evenodd" clip-rule="evenodd" d="M18.8957 12.7906C22.2654 12.7906 25.0003 15.5255 25.0003 18.8953C25.0003 22.2651 22.2654 25 18.8957 25C15.5259 25 12.791 22.2651 12.791 18.8953C12.791 15.5255 15.5259 12.7906 18.8957 12.7906ZM17.4422 17.1511V19.4767C17.4422 19.9581 17.8329 20.3488 18.3143 20.3488H20.0585C20.5399 20.3488 20.9306 19.9581 20.9306 19.4767C20.9306 18.9953 20.5399 18.6046 20.0585 18.6046H19.1864V17.1511C19.1864 16.6697 18.7957 16.279 18.3143 16.279C17.8329 16.279 17.4422 16.6697 17.4422 17.1511Z" fill="#002F6D"/>
<path id="Path" fill-rule="evenodd" clip-rule="evenodd" d="M13.3721 3.19767C13.3721 3.67907 12.9814 4.06977 12.5 4.06977C12.0186 4.06977 11.6279 3.67907 11.6279 3.19767V0.872093C11.6279 0.390698 12.0186 0 12.5 0C12.9814 0 13.3721 0.390698 13.3721 0.872093V3.19767Z" fill="#002F6D"/>
<path id="Path_2" fill-rule="evenodd" clip-rule="evenodd" d="M19.7676 3.19767C19.7676 3.67907 19.3769 4.06977 18.8955 4.06977C18.4141 4.06977 18.0234 3.67907 18.0234 3.19767V0.872093C18.0234 0.390698 18.4141 0 18.8955 0C19.3769 0 19.7676 0.390698 19.7676 0.872093V3.19767Z" fill="#002F6D"/>
<path id="Path_3" fill-rule="evenodd" clip-rule="evenodd" d="M6.97661 3.19767C6.97661 3.67907 6.58591 4.06977 6.10451 4.06977C5.62312 4.06977 5.23242 3.67907 5.23242 3.19767V0.872093C5.23242 0.390698 5.62312 0 6.10451 0C6.58591 0 6.97661 0.390698 6.97661 0.872093V3.19767Z" fill="#002F6D"/>
<path id="Shape_2" fill-rule="evenodd" clip-rule="evenodd" d="M14.9523 25H4.36047C1.95233 25 0 23.0477 0 20.6395V6.68603C0 4.27789 1.95233 2.32556 4.36047 2.32556H20.6395C23.0477 2.32556 25 4.27789 25 6.68603V14.9523C23.7047 12.9523 21.4535 11.6279 18.8953 11.6279C14.8849 11.6279 11.6279 14.8849 11.6279 18.8953C11.6279 21.4535 12.9523 23.7046 14.9523 25ZM4.94186 17.7325C4.3 17.7325 3.77907 18.2535 3.77907 18.8953C3.77907 19.5372 4.3 20.0581 4.94186 20.0581C5.58372 20.0581 6.10465 19.5372 6.10465 18.8953C6.10465 18.2535 5.58372 17.7325 4.94186 17.7325ZM18.8953 7.26742C18.2535 7.26742 17.7326 7.78835 17.7326 8.43021C17.7326 9.07207 18.2535 9.593 18.8953 9.593C19.5372 9.593 20.0581 9.07207 20.0581 8.43021C20.0581 7.78835 19.5372 7.26742 18.8953 7.26742ZM14.2442 7.26742C13.6023 7.26742 13.0814 7.78835 13.0814 8.43021C13.0814 9.07207 13.6023 9.593 14.2442 9.593C14.886 9.593 15.407 9.07207 15.407 8.43021C15.407 7.78835 14.886 7.26742 14.2442 7.26742ZM4.94186 12.5C4.3 12.5 3.77907 13.0209 3.77907 13.6628C3.77907 14.3046 4.3 14.8256 4.94186 14.8256C5.58372 14.8256 6.10465 14.3046 6.10465 13.6628C6.10465 13.0209 5.58372 12.5 4.94186 12.5ZM4.94186 7.26742C4.3 7.26742 3.77907 7.78835 3.77907 8.43021C3.77907 9.07207 4.3 9.593 4.94186 9.593C5.58372 9.593 6.10465 9.07207 6.10465 8.43021C6.10465 7.78835 5.58372 7.26742 4.94186 7.26742ZM9.59302 12.5C8.95116 12.5 8.43023 13.0209 8.43023 13.6628C8.43023 14.3046 8.95116 14.8256 9.59302 14.8256C10.2349 14.8256 10.7558 14.3046 10.7558 13.6628C10.7558 13.0209 10.2349 12.5 9.59302 12.5ZM9.59302 7.26742C8.95116 7.26742 8.43023 7.78835 8.43023 8.43021C8.43023 9.07207 8.95116 9.593 9.59302 9.593C10.2349 9.593 10.7558 9.07207 10.7558 8.43021C10.7558 7.78835 10.2349 7.26742 9.59302 7.26742ZM9.59302 17.7325C8.95116 17.7325 8.43023 18.2535 8.43023 18.8953C8.43023 19.5372 8.95116 20.0581 9.59302 20.0581C10.2349 20.0581 10.7558 19.5372 10.7558 18.8953C10.7558 18.2535 10.2349 17.7325 9.59302 17.7325Z" fill="#002F6D"/>
</g>
</svg>
