<svg width="25" height="17" viewBox="0 0 25 17" fill="none" xmlns="http://www.w3.org/2000/svg">
<g id="email">
<path id="Path" d="M15.6661 9.50354L13.6412 11.5353C12.82 12.3594 11.3752 12.3771 10.5363 11.5353L8.51126 9.50354L1.23828 16.8001C1.50901 16.9253 1.8075 17 2.12483 17H22.0526C22.3699 17 22.6683 16.9254 22.939 16.8002L15.6661 9.50354Z" fill="#002F6D"/>
<path id="Path_2" d="M22.0525 0H2.12474C1.8074 0 1.50891 0.0747056 1.23828 0.199892L9.00997 7.99737C9.01049 7.99789 9.01111 7.99798 9.01163 7.9985C9.01215 7.99902 9.01224 7.99973 9.01224 7.99973L11.5392 10.5351C11.8077 10.8035 12.3697 10.8035 12.6381 10.5351L15.1646 8.00015C15.1646 8.00015 15.1652 7.99902 15.1657 7.9985C15.1657 7.9985 15.1669 7.99789 15.1674 7.99737L22.9389 0.199844C22.6682 0.0746111 22.3698 0 22.0525 0Z" fill="#002F6D"/>
<path id="Path_3" d="M0.226006 1.19055C0.0859444 1.47379 0 1.7882 0 2.12499V14.875C0 15.2118 0.08585 15.5262 0.225958 15.8094L7.51154 8.50022L0.226006 1.19055Z" fill="#002F6D"/>
<path id="Path_4" d="M23.9515 1.19043L16.666 8.50019L23.9515 15.8095C24.0916 15.5262 24.1775 15.2118 24.1775 14.875V2.12496C24.1775 1.78807 24.0916 1.47367 23.9515 1.19043Z" fill="#002F6D"/>
</g>
</svg>
