<svg width="340" height="49" viewBox="0 0 340 49" fill="none" xmlns="http://www.w3.org/2000/svg">
<path fill-rule="evenodd" clip-rule="evenodd" d="M12.3749 37.8297C12.3749 34.1959 9.81931 32.081 7.10985 32.081C4.36203 32.081 1.82541 34.1959 1.82541 37.8297C1.82541 41.4825 4.40039 43.578 7.10985 43.578C9.81931 43.578 12.3749 41.4635 12.3749 37.8297ZM7.10985 30.3892C11.1835 30.3892 14.2003 33.6193 14.2003 37.8297C14.2003 42.0785 11.1835 45.2703 7.10985 45.2703C3.01678 45.2703 0 42.0979 0 37.8297C0 33.6193 3.01678 30.3892 7.10985 30.3892Z" fill="#446794"/>
<path fill-rule="evenodd" clip-rule="evenodd" d="M31.051 37.6373C31.051 34.8496 29.0717 32.7925 26.3239 32.7925V42.4821C29.0717 42.4821 31.051 40.425 31.051 37.6373ZM24.5946 42.4821V32.7925C21.8468 32.7925 19.8675 34.8496 19.8675 37.6373C19.8675 40.425 21.8468 42.4821 24.5946 42.4821ZM24.5946 31.1774V29.8125H26.3239V31.1774C29.9364 31.1774 32.7997 33.85 32.7997 37.6373C32.7997 41.4246 29.9364 44.0972 26.3239 44.0972V45.4815H24.5946V44.0972C20.9822 44.0972 18.0999 41.4246 18.0999 37.6373C18.0999 33.85 20.9822 31.1774 24.5946 31.1774Z" fill="#446794"/>
<path fill-rule="evenodd" clip-rule="evenodd" d="M40.5235 38.5598H47.1527V37.022H40.5235V38.5598ZM43.8475 43.5974C46.5958 43.5974 49.1514 41.4825 49.1514 37.8297C49.1514 34.1959 46.5958 32.062 43.8475 32.062C41.0808 32.062 38.5252 34.1959 38.5252 37.8297C38.5252 41.5015 41.0997 43.5974 43.8475 43.5974ZM36.7188 37.8297C36.7188 33.6189 39.7549 30.3892 43.8475 30.3892C47.9406 30.3892 50.9574 33.6189 50.9574 37.8297C50.9574 42.0785 47.9406 45.2698 43.8475 45.2698C39.7355 45.2698 36.7188 42.0975 36.7188 37.8297Z" fill="#446794"/>
<path fill-rule="evenodd" clip-rule="evenodd" d="M62.8511 39.0407L60.3723 32.6771L57.8934 39.0407H62.8511ZM65.1183 44.9814L63.4468 40.6364H57.3171L55.6452 44.9814H53.7625L59.3732 30.6777H61.3908L67.0399 44.9814H65.1183Z" fill="#446794"/>
<path fill-rule="evenodd" clip-rule="evenodd" d="M74.7833 30.6777H76.8009L82.1621 44.9818H80.2406L75.7824 32.6581L71.3437 44.9818H69.4221L74.7833 30.6777Z" fill="#446794"/>
<path fill-rule="evenodd" clip-rule="evenodd" d="M87.0996 44.9813H85.3315L87.5225 30.6772H89.6936L93.6711 42.2898H93.6905L97.5525 30.6772H99.7624L101.934 44.9813H100.166L98.4366 33.2342H98.3982L94.4396 44.9813H92.8448L88.8483 33.3304H88.8095L87.0996 44.9813Z" fill="#446794"/>
<path fill-rule="evenodd" clip-rule="evenodd" d="M106.813 44.9818H108.6V30.6777H106.813V44.9818Z" fill="#446794"/>
<path fill-rule="evenodd" clip-rule="evenodd" d="M121.801 39.0407L119.322 32.6771L116.843 39.0407H121.801ZM124.068 44.9814L122.397 40.6364H116.267L114.595 44.9814H112.712L118.323 30.6777H120.341L125.99 44.9814H124.068Z" fill="#446794"/>
<path fill-rule="evenodd" clip-rule="evenodd" d="M131.696 32.3501H127.18V30.6772H137.979V32.3501H133.483V44.9813H131.696V32.3501Z" fill="#446794"/>
<path fill-rule="evenodd" clip-rule="evenodd" d="M145.934 38.4831C148.163 38.4831 149.565 37.3295 149.565 35.3685C149.565 33.4265 148.163 32.3501 145.934 32.3501H144.07V38.4831H145.934ZM142.283 30.6772H145.78C149.162 30.6772 151.372 32.4079 151.372 35.3301C151.372 38.2329 149.22 40.1365 145.838 40.1365H144.07V44.9813H142.283V30.6772Z" fill="#446794"/>
<path fill-rule="evenodd" clip-rule="evenodd" d="M167.416 37.8297C167.416 34.1959 164.86 32.081 162.151 32.081C159.403 32.081 156.866 34.1959 156.866 37.8297C156.866 41.4825 159.441 43.578 162.151 43.578C164.86 43.578 167.416 41.4635 167.416 37.8297ZM162.151 30.3892C166.225 30.3892 169.241 33.6193 169.241 37.8297C169.241 42.0785 166.225 45.2703 162.151 45.2703C158.058 45.2703 155.041 42.0979 155.041 37.8297C155.041 33.6193 158.058 30.3892 162.151 30.3892Z" fill="#446794"/>
<path fill-rule="evenodd" clip-rule="evenodd" d="M176.331 37.7909L172.488 30.6772H182.095V32.3501H175.293V32.3691L178.252 37.7525L175.12 43.2895V43.3089H182.288V44.9813H172.353L176.331 37.7909Z" fill="#446794"/>
<path fill-rule="evenodd" clip-rule="evenodd" d="M193.797 48.4999H195.43V27.1978H193.797V48.4999Z" fill="#446794"/>
<path fill-rule="evenodd" clip-rule="evenodd" d="M211.282 37.7909L206.497 30.6772H208.572L212.435 36.4449L216.259 30.6772H218.295L213.511 37.7525L218.411 44.9813H216.355L212.377 39.1369L208.457 44.9813H206.42L211.282 37.7909Z" fill="#446794"/>
<path fill-rule="evenodd" clip-rule="evenodd" d="M222.599 30.6777H230.439V32.3506H224.386V36.9069H229.997V38.4836H224.386V43.3284H230.439V44.9818H222.599V30.6777Z" fill="#446794"/>
<path fill-rule="evenodd" clip-rule="evenodd" d="M235.626 44.9818H237.414V30.6777H235.626V44.9818Z" fill="#446794"/>
<path fill-rule="evenodd" clip-rule="evenodd" d="M246.905 38.4831C249.134 38.4831 250.537 37.3295 250.537 35.3685C250.537 33.4265 249.134 32.3501 246.905 32.3501H245.041V38.4831H246.905ZM243.254 30.6772H246.751C250.133 30.6772 252.343 32.4079 252.343 35.3301C252.343 38.2329 250.191 40.1365 246.809 40.1365H245.041V44.9813H243.254V30.6772Z" fill="#446794"/>
<path fill-rule="evenodd" clip-rule="evenodd" d="M268.388 37.8297C268.388 34.1959 265.832 32.081 263.123 32.081C260.375 32.081 257.838 34.1959 257.838 37.8297C257.838 41.4825 260.413 43.578 263.123 43.578C265.832 43.578 268.388 41.4635 268.388 37.8297ZM263.123 30.3892C267.196 30.3892 270.213 33.6193 270.213 37.8297C270.213 42.0785 267.196 45.2703 263.123 45.2703C259.029 45.2703 256.013 42.0979 256.013 37.8297C256.013 33.6193 259.029 30.3892 263.123 30.3892Z" fill="#446794"/>
<path fill-rule="evenodd" clip-rule="evenodd" d="M277.821 38.9445L272.556 30.6772H274.574L278.705 37.2911H278.725L282.818 30.6772H284.797L279.57 38.9251V44.9813H277.821V38.9445Z" fill="#446794"/>
<path fill-rule="evenodd" clip-rule="evenodd" d="M292.501 38.4831C294.73 38.4831 296.133 37.3295 296.133 35.3685C296.133 33.4265 294.73 32.3501 292.501 32.3501H290.637V38.4831H292.501ZM288.851 30.6772H292.348C295.729 30.6772 297.939 32.4079 297.939 35.3301C297.939 38.2329 295.787 40.1365 292.405 40.1365H290.637V44.9813H288.851V30.6772Z" fill="#446794"/>
<path fill-rule="evenodd" clip-rule="evenodd" d="M302.531 30.6777H310.083V32.3506H304.318V44.9818H302.531V30.6777Z" fill="#446794"/>
<path fill-rule="evenodd" clip-rule="evenodd" d="M325.128 37.8297C325.128 34.1959 322.573 32.081 319.863 32.081C317.115 32.081 314.579 34.1959 314.579 37.8297C314.579 41.4825 317.154 43.578 319.863 43.578C322.573 43.578 325.128 41.4635 325.128 37.8297ZM319.863 30.3892C323.937 30.3892 326.954 33.6193 326.954 37.8297C326.954 42.0785 323.937 45.2703 319.863 45.2703C315.77 45.2703 312.753 42.0979 312.753 37.8297C312.753 33.6193 315.77 30.3892 319.863 30.3892Z" fill="#446794"/>
<path fill-rule="evenodd" clip-rule="evenodd" d="M334.043 37.7909L330.2 30.6772H339.808V32.3501H333.006V32.3691L335.965 37.7525L332.833 43.2895V43.3089H340V44.9813H330.066L334.043 37.7909Z" fill="#446794"/>
<path fill-rule="evenodd" clip-rule="evenodd" d="M8.33171 19.3171H14.6208L11.4418 12.1697L8.33171 19.3171ZM0.504634 24.3441C0.299911 24.3441 0.231516 24.2756 0.368306 24.0024L11.5102 0.679633C11.6128 0.440122 11.818 0.440122 11.9206 0.679633L23.0288 24.0024C23.1656 24.2756 23.0972 24.3441 22.892 24.3441H0.504634Z" fill="#002F6D"/>
<path fill-rule="evenodd" clip-rule="evenodd" d="M34.4428 12.4777C36.5616 12.4777 37.6897 11.3491 37.6897 9.43389C37.6897 7.51919 36.5616 6.35631 34.4428 6.35631H31.572V12.4777H34.4428ZM31.572 24.3441H25.3513V1.08984H34.7506C40.6635 1.08984 43.9446 4.68066 43.9446 9.43389C43.9446 14.1876 40.6635 17.6758 34.7506 17.6758H31.572V24.3441Z" fill="#002F6D"/>
<path fill-rule="evenodd" clip-rule="evenodd" d="M42.9524 21.3347C42.9524 19.3511 44.5588 17.9834 46.3703 17.9834C48.1476 17.9834 49.7882 19.3511 49.7882 21.3347C49.7882 23.3183 48.1476 24.686 46.3703 24.686C44.5588 24.686 42.9524 23.3183 42.9524 21.3347Z" fill="#002F6D"/>
<path fill-rule="evenodd" clip-rule="evenodd" d="M59.9028 1.432C59.7318 1.15828 59.8002 1.08984 60.0054 1.08984H77.4706V6.3221H69.9171L73.2666 11.8965C73.3692 12.0671 73.3692 12.1356 73.2666 12.3066L69.1311 19.1119H77.9494V24.3441H59.6634C59.4587 24.3441 59.3903 24.2757 59.5613 24.002L66.5676 12.4435L59.9028 1.432Z" fill="#002F6D"/>
<path fill-rule="evenodd" clip-rule="evenodd" d="M81.0928 24.3442H87.313V1.09033H81.0928V24.3442Z" fill="#002F6D"/>
<path fill-rule="evenodd" clip-rule="evenodd" d="M112.193 0.850767C112.227 0.611256 112.364 0.645472 112.501 0.816551L123.643 13.3326L134.614 0.816551C134.751 0.645472 134.888 0.611256 134.922 0.850767L136.289 24.3441H130.171L129.624 14.4271L123.814 21.1639C123.711 21.2665 123.609 21.2665 123.506 21.1639L117.457 14.3928L116.91 24.3441H110.826L112.193 0.850767Z" fill="#002F6D"/>
<path fill-rule="evenodd" clip-rule="evenodd" d="M159.802 1.08984V24.3437H153.582V6.3221H145.926V24.3437H139.705V1.08984H159.802Z" fill="#002F6D"/>
<path fill-rule="evenodd" clip-rule="evenodd" d="M178.12 1.08984H184.34V24.3437H178.12V15.2474H170.054V24.3437H163.833V1.08984H170.054V10.0151H178.12V1.08984Z" fill="#002F6D"/>
<path fill-rule="evenodd" clip-rule="evenodd" d="M186.97 1.432C186.799 1.15828 186.868 1.08984 187.073 1.08984H204.538V6.3221H196.985L200.334 11.8965C200.437 12.0671 200.437 12.1356 200.334 12.3066L196.199 19.1119H205.017V24.3441H186.731C186.526 24.3441 186.458 24.2757 186.629 24.002L193.635 12.4435L186.97 1.432Z" fill="#002F6D"/>
<path fill-rule="evenodd" clip-rule="evenodd" d="M224.326 14.9055H230.956V10.2891H224.326V14.9055ZM233.759 12.7171C233.759 9.05781 231.537 6.21974 227.641 6.21974C223.745 6.21974 221.523 9.05781 221.523 12.7171C221.523 16.3763 223.745 19.2486 227.641 19.2486C231.537 19.2486 233.759 16.3763 233.759 12.7171ZM215.166 12.7171C215.166 5.7065 220.942 0.816406 227.641 0.816406C234.34 0.816406 240.116 5.7065 240.116 12.7171C240.116 19.7271 234.34 24.6519 227.641 24.6519C220.942 24.6519 215.166 19.7271 215.166 12.7171Z" fill="#002F6D"/>
<path fill-rule="evenodd" clip-rule="evenodd" d="M254.538 0.816406C261.306 0.816406 266.979 5.77493 266.979 12.546C266.979 15.1792 265.748 17.8467 263.972 19.1802H266.638V24.344H256.349V19.5907C259.255 17.9835 260.622 15.7262 260.622 12.7171C260.622 9.22888 258.503 6.21974 254.538 6.21974C250.539 6.21974 248.386 9.22888 248.386 12.7171C248.386 15.7262 249.753 17.9835 252.658 19.5907V24.344H242.37V19.1802H245.036C243.259 17.8467 242.029 15.1792 242.029 12.546C242.029 5.77493 247.668 0.816406 254.538 0.816406Z" fill="#002F6D"/>
<path fill-rule="evenodd" clip-rule="evenodd" d="M270.771 0.850767C270.805 0.611256 270.942 0.645472 271.079 0.816551L282.221 13.3326L293.192 0.816551C293.329 0.645472 293.466 0.611256 293.5 0.850767L294.867 24.3441H288.749L288.202 14.4271L282.392 21.1639C282.289 21.2665 282.187 21.2665 282.084 21.1639L276.035 14.3928L275.488 24.3441H269.404L270.771 0.850767Z" fill="#002F6D"/>
<path fill-rule="evenodd" clip-rule="evenodd" d="M305.734 17.0257H309.938L307.818 12.1014L305.734 17.0257ZM311.92 21.5399H303.82L302.657 24.3437H296.574L307.887 0.679286C307.989 0.440238 308.195 0.440238 308.297 0.679286L319.576 24.3437H313.151L311.92 21.5399Z" fill="#002F6D"/>
<path fill-rule="evenodd" clip-rule="evenodd" d="M320.668 1.432C320.497 1.15828 320.566 1.08984 320.771 1.08984H338.236V6.3221H330.683L334.032 11.8965C334.135 12.0671 334.135 12.1356 334.032 12.3066L329.896 19.1119H338.715V24.3441H320.429C320.224 24.3441 320.156 24.2757 320.327 24.002L327.333 12.4435L320.668 1.432Z" fill="#002F6D"/>
<path fill-rule="evenodd" clip-rule="evenodd" d="M91.4824 1.08984H107.785V6.3221H97.7027V10.152H106.111V15.1105H97.7027V19.1119H108.264V24.3437H91.4824V1.08984Z" fill="#002F6D"/>
</svg>
