<svg width="25" height="26" viewBox="0 0 25 26" fill="none" xmlns="http://www.w3.org/2000/svg">
<path d="M24.9453 19.8704C24.8746 19.6573 24.4247 19.3435 23.596 18.9295C23.3715 18.7991 23.0515 18.6217 22.6376 18.3968C22.2233 18.1719 21.8473 17.9646 21.5101 17.7752C21.1723 17.5858 20.8558 17.4023 20.5601 17.225C20.5129 17.1895 20.3649 17.0861 20.1163 16.9141C19.8675 16.7426 19.6577 16.6153 19.4857 16.5323C19.3142 16.4497 19.1454 16.4082 18.9796 16.4082C18.743 16.4082 18.4473 16.577 18.0923 16.9141C17.7374 17.2517 17.4117 17.6183 17.116 18.0152C16.8201 18.4119 16.5064 18.7786 16.1753 19.116C15.8437 19.4535 15.5712 19.6221 15.3584 19.6221C15.2516 19.6221 15.1184 19.5923 14.9587 19.5335C14.7992 19.4744 14.6778 19.4237 14.5944 19.3828C14.5119 19.3411 14.3701 19.2585 14.1688 19.1338C13.967 19.0095 13.8548 18.9414 13.8312 18.9295C12.2096 18.0297 10.8189 16.9999 9.65873 15.8402C8.49896 14.6799 7.46899 13.2893 6.56942 11.6675C6.5576 11.6438 6.48938 11.5313 6.36519 11.3302C6.24081 11.1289 6.15791 10.987 6.1165 10.9039C6.07508 10.8212 6.02477 10.6998 5.96569 10.54C5.90661 10.3802 5.87694 10.2472 5.87694 10.1405C5.87694 9.92757 6.04566 9.65518 6.38304 9.32372C6.72035 8.99243 7.08739 8.67863 7.48379 8.38292C7.88049 8.08721 8.24716 7.76159 8.5846 7.40661C8.92191 7.05145 9.09057 6.75567 9.09057 6.51898C9.09057 6.35337 9.04915 6.18453 8.96638 6.01295C8.88354 5.841 8.7563 5.63117 8.5846 5.38247C8.41283 5.1339 8.30929 4.98608 8.27372 4.93851C8.09635 4.6428 7.91308 4.32619 7.72346 3.98881C7.53385 3.6515 7.32688 3.2755 7.10188 2.86126C6.87707 2.44721 6.69964 2.12749 6.56929 1.90262C6.15524 1.07419 5.84162 0.624192 5.6285 0.553421C5.5456 0.51791 5.42122 0.5 5.25567 0.5C4.9359 0.5 4.51873 0.55908 4.00387 0.677612C3.48881 0.795958 3.08353 0.920088 2.78757 1.0505C2.19571 1.29894 1.56841 2.02096 0.905475 3.2163C0.301804 4.32874 0 5.4298 0 6.51867C0 6.83801 0.020709 7.14871 0.062127 7.45083C0.103545 7.75263 0.17755 8.09299 0.284205 8.47185C0.390673 8.85058 0.476556 9.13192 0.541481 9.31513C0.606469 9.49847 0.7278 9.82689 0.905413 10.3005C1.08278 10.774 1.18943 11.0639 1.22494 11.1704C1.63918 12.3305 2.13042 13.3661 2.69851 14.2776C3.63322 15.7927 4.90878 17.3584 6.52446 18.9742C8.14019 20.5899 9.70562 21.8654 11.2208 22.8005C12.1322 23.3685 13.1682 23.8597 14.3281 24.2743C14.4347 24.3096 14.7245 24.416 15.1979 24.594C15.6714 24.7715 15.9999 24.8928 16.1832 24.9579C16.3666 25.0231 16.6481 25.109 17.0265 25.2157C17.4057 25.3223 17.7458 25.3963 18.0476 25.4381C18.3495 25.4789 18.6603 25.5 18.9797 25.5C20.0685 25.5 21.1696 25.198 22.2823 24.5944C23.4775 23.9317 24.1993 23.3043 24.4479 22.712C24.5786 22.4163 24.7024 22.0109 24.8208 21.4959C24.9395 20.9811 24.9984 20.564 24.9984 20.2443C24.9988 20.078 24.981 19.954 24.9453 19.8704Z" fill="#C2CEDD"/>
</svg>
