<svg width="266" height="176" viewBox="0 0 266 176" fill="none" xmlns="http://www.w3.org/2000/svg">
<g id="glaucoma-3 copy">
<path id="XMLID_311_" d="M52.8401 106.353C58.6716 131.031 76.5476 148.918 103.816 148.918C137.515 148.918 164.836 121.597 164.836 87.8979C164.836 54.1988 137.515 26.8777 103.816 26.8777C76.5476 26.8777 58.6716 44.7648 52.8401 69.4432" stroke="#D2DCE9" stroke-width="5" stroke-linecap="round" stroke-linejoin="round"/>
<path id="XMLID_306_" fill-rule="evenodd" clip-rule="evenodd" d="M69.3263 87.8979C69.3263 98.1547 61.0116 106.469 50.7548 106.469C40.498 106.469 34.8367 98.1547 34.8367 87.8979C34.8367 77.6411 40.4985 69.3264 50.7548 69.3264C61.0116 69.3264 69.3263 77.6411 69.3263 87.8979Z" stroke="#D2DCE9" stroke-width="5" stroke-linecap="round" stroke-linejoin="round"/>
<path id="XMLID_302_" fill-rule="evenodd" clip-rule="evenodd" d="M263 53.4083C223.382 53.4083 184.86 40.9563 152.388 18.2607C138.619 8.63704 121.862 2.99366 103.786 3.00001C67.36 3.01269 36.0781 26.2763 24.1155 58.7182C12.4435 58.7996 3 71.8308 3 87.8979C3 103.944 12.4197 116.961 24.07 117.076C35.9698 149.589 67.1809 172.796 103.816 172.796C121.87 172.796 138.606 167.16 152.363 157.552C184.852 134.862 223.372 122.388 262.999 122.388V122.388L263 53.4083V53.4083Z" stroke="#D2DCE9" stroke-width="5" stroke-linecap="round" stroke-linejoin="round"/>
<path id="XMLID_301_" d="M155.238 55.0371L160.536 57.3919C202.889 76.216 238.499 74.2866 241.775 74.6328" stroke="#D2DCE9" stroke-width="5" stroke-linecap="round" stroke-linejoin="round"/>
<path id="XMLID_299_" d="M155.238 120.759L160.536 118.404C202.889 99.5801 238.499 101.509 241.775 101.163" stroke="#D2DCE9" stroke-width="5" stroke-linecap="round" stroke-linejoin="round"/>
<path id="XMLID_293_" d="M119.735 90.5508H140.959" stroke="#D2DCE9" stroke-width="4" stroke-linecap="round" stroke-linejoin="round"/>
<path id="XMLID_292_" d="M131.954 81.5464L140.959 90.5507L131.954 99.5556" stroke="#D2DCE9" stroke-width="4" stroke-linecap="round" stroke-linejoin="round"/>
<path id="XMLID_291_" d="M102.209 74.6326V53.4082" stroke="#D2DCE9" stroke-width="4" stroke-linecap="round" stroke-linejoin="round"/>
<path id="XMLID_290_" d="M93.2041 62.4131L102.209 53.4082L111.213 62.4131" stroke="#D2DCE9" stroke-width="4" stroke-linecap="round" stroke-linejoin="round"/>
<path id="XMLID_288_" d="M102.209 106.469V127.694" stroke="#D2DCE9" stroke-width="4" stroke-linecap="round" stroke-linejoin="round"/>
<path id="XMLID_286_" d="M93.2041 118.689L102.209 127.694L111.213 118.689" stroke="#D2DCE9" stroke-width="4" stroke-linecap="round" stroke-linejoin="round"/>
</g>
</svg>
