<svg width="266" height="174" viewBox="0 0 266 174" fill="none" xmlns="http://www.w3.org/2000/svg">
<g id="Group 16 Copy 2">
<path id="Path" d="M158 13.5012C117.179 5.34909 73.1807 17.1244 41.5392 48.8272L5.63209 84.8039C2.12264 88.3202 2.12264 94.0218 5.63209 97.5381L37.0332 129" stroke="#BFC3CA" stroke-width="5" stroke-linecap="round" stroke-linejoin="round"/>
<path id="Path_2" d="M53 141.953C103.401 183.48 177.681 180.481 224.632 132.953L260.38 96.7671C263.873 93.2304 263.873 87.4956 260.38 83.9588L243.627 67" stroke="#BFC3CA" stroke-width="5" stroke-linecap="round" stroke-linejoin="round"/>
<path id="Path_3" d="M193 110.286C184.614 132.878 162.623 149 136.815 149C103.78 149 77 122.585 77 90C77 57.415 103.78 31 136.815 31C139.609 31 142.358 31.1889 145.05 31.5548" stroke="#BFC3CA" stroke-width="5" stroke-linecap="round" stroke-linejoin="round"/>
<path id="Path_4" d="M161 100.738C156.913 110.291 147.279 117 136.046 117C121.109 117 109 105.136 109 90.5C109 75.8643 121.109 64 136.046 64C136.881 64 137.707 64.0373 138.522 64.1093" stroke="#BFC3CA" stroke-width="5" stroke-linecap="round" stroke-linejoin="round"/>
<path id="Path_5" d="M235 24.0024C225.325 11.2345 210.085 3 192.942 3C163.703 3 140 26.9529 140 56.5C140 86.0471 163.703 110 192.942 110C203.528 110 213.38 106.848 221.652 101.439" stroke="#BFC3CA" stroke-width="5" stroke-linecap="round" stroke-linejoin="round"/>
<path id="Path_6" d="M234 90C240.912 81.2371 245 70.4571 245 58.7913C245 55.4466 244.665 52.1739 244.023 49" stroke="#BFC3CA" stroke-width="5" stroke-linecap="round" stroke-linejoin="round"/>
<path id="Path_7" d="M21 110V110C24.2578 104.816 27.6962 100.279 31.7395 97.9002C34.323 96.3804 36 93.5811 36 90.4529V90.3354C36 87.068 34.2696 84.0153 31.461 82.657C27.6522 80.8156 24.1673 77.5882 21 73" stroke="#BFC3CA" stroke-width="5" stroke-linecap="round" stroke-linejoin="round"/>
</g>
</svg>
