<svg width="17" height="17" viewBox="0 0 17 17" fill="none" xmlns="http://www.w3.org/2000/svg">
<path d="M16.8532 16.5001V10.6401C16.8532 7.76006 16.2332 5.56006 12.8732 5.56006C11.2532 5.56006 10.1732 6.44006 9.73318 7.28006H9.69318V5.82006H6.51318V16.5001H9.83318V11.2001C9.83318 9.80006 10.0932 8.46006 11.8132 8.46006C13.5132 8.46006 13.5332 10.0401 13.5332 11.2801V16.4801H16.8532V16.5001Z" fill="#002F6D"/>
<path d="M1.11328 5.81982H4.43328V16.4998H1.11328V5.81982Z" fill="#002F6D"/>
<path d="M2.77327 0.5C1.71327 0.5 0.853271 1.36 0.853271 2.42C0.853271 3.48 1.71327 4.36 2.77327 4.36C3.83327 4.36 4.69327 3.48 4.69327 2.42C4.69327 1.36 3.83327 0.5 2.77327 0.5Z" fill="#002F6D"/>
</svg>
