<svg width="371" height="70" viewBox="0 0 371 70" fill="none" xmlns="http://www.w3.org/2000/svg">
<g id="Group 35">
<g id="Group 5">
<g id="Group 2">
<g id="Group 2 Copy">
<g id="Group">
<path id="Fill 29" fill-rule="evenodd" clip-rule="evenodd" d="M101.157 46.6219C101.157 43.641 99.0592 41.9061 96.8354 41.9061C94.5801 41.9061 92.4982 43.641 92.4982 46.6219C92.4982 49.6183 94.6116 51.3373 96.8354 51.3373C99.0592 51.3373 101.157 49.6028 101.157 46.6219M96.8354 40.5183C100.179 40.5183 102.655 43.1681 102.655 46.6219C102.655 50.1072 100.179 52.7255 96.8354 52.7255C93.476 52.7255 91 50.1232 91 46.6219C91 43.1681 93.476 40.5183 96.8354 40.5183" fill="#446794"/>
<path id="Fill 30" fill-rule="evenodd" clip-rule="evenodd" d="M116.485 46.4642C116.485 44.1775 114.861 42.49 112.605 42.49V50.4385C114.861 50.4385 116.485 48.751 116.485 46.4642M111.186 50.4385V42.49C108.931 42.49 107.306 44.1775 107.306 46.4642C107.306 48.751 108.931 50.4385 111.186 50.4385M111.186 41.1651V40.0454H112.605V41.1651C115.57 41.1651 117.921 43.3574 117.921 46.4642C117.921 49.571 115.57 51.7633 112.605 51.7633V52.8989H111.186V51.7633C108.221 51.7633 105.856 49.571 105.856 46.4642C105.856 43.3574 108.221 41.1651 111.186 41.1651" fill="#446794"/>
<path id="Fill 31" fill-rule="evenodd" clip-rule="evenodd" d="M124.26 47.221H129.701V45.9594H124.26V47.221ZM126.988 51.3534C129.244 51.3534 131.341 49.6185 131.341 46.622C131.341 43.6412 129.244 41.8907 126.988 41.8907C124.717 41.8907 122.62 43.6412 122.62 46.622C122.62 49.634 124.733 51.3534 126.988 51.3534V51.3534ZM121.137 46.622C121.137 43.1678 123.629 40.5185 126.988 40.5185C130.347 40.5185 132.823 43.1678 132.823 46.622C132.823 50.1074 130.347 52.7253 126.988 52.7253C123.613 52.7253 121.137 50.1229 121.137 46.622V46.622Z" fill="#446794"/>
<path id="Fill 32" fill-rule="evenodd" clip-rule="evenodd" d="M142.585 47.6154L140.551 42.3952L138.516 47.6154H142.585ZM144.446 52.4886L143.074 48.9244H138.043L136.671 52.4886H135.126L139.731 40.7551H141.387L146.023 52.4886H144.446Z" fill="#446794"/>
<path id="Fill 33" fill-rule="evenodd" clip-rule="evenodd" d="M152.379 40.755H154.035L158.435 52.4888H156.858L153.199 42.3795L149.555 52.4888H147.978L152.379 40.755Z" fill="#446794"/>
<path id="Fill 34" fill-rule="evenodd" clip-rule="evenodd" d="M162.487 52.4887H161.036L162.834 40.7549H164.616L167.881 50.2809H167.897L171.066 40.7549H172.88L174.662 52.4887H173.211L171.792 42.8524H171.761L168.512 52.4887H167.203L163.922 42.9313H163.891L162.487 52.4887Z" fill="#446794"/>
<path id="Fill 35" fill-rule="evenodd" clip-rule="evenodd" d="M178.667 52.489H180.134V40.7551H178.667V52.489Z" fill="#446794"/>
<path id="Fill 36" fill-rule="evenodd" clip-rule="evenodd" d="M190.968 47.6154L188.934 42.3952L186.899 47.6154H190.968ZM192.829 52.4886L191.457 48.9244H186.426L185.054 52.4886H183.509L188.114 40.7551H189.77L194.406 52.4886H192.829Z" fill="#446794"/>
<path id="Fill 37" fill-rule="evenodd" clip-rule="evenodd" d="M199.09 42.1272H195.384V40.7549H204.247V42.1272H200.556V52.4887H199.09V42.1272Z" fill="#446794"/>
<path id="Fill 38" fill-rule="evenodd" clip-rule="evenodd" d="M210.776 47.1581C212.605 47.1581 213.756 46.2117 213.756 44.6031C213.756 43.0101 212.605 42.1271 210.776 42.1271H209.246V47.1581H210.776ZM207.779 40.7548H210.649C213.425 40.7548 215.239 42.1745 215.239 44.5717C215.239 46.9529 213.472 48.5144 210.697 48.5144H209.246V52.4887H207.779V40.7548Z" fill="#446794"/>
<path id="Fill 39" fill-rule="evenodd" clip-rule="evenodd" d="M228.407 46.6219C228.407 43.641 226.309 41.9061 224.086 41.9061C221.83 41.9061 219.748 43.641 219.748 46.6219C219.748 49.6183 221.862 51.3373 224.086 51.3373C226.309 51.3373 228.407 49.6028 228.407 46.6219M224.086 40.5183C227.429 40.5183 229.905 43.1681 229.905 46.6219C229.905 50.1072 227.429 52.7255 224.086 52.7255C220.726 52.7255 218.25 50.1232 218.25 46.6219C218.25 43.1681 220.726 40.5183 224.086 40.5183" fill="#446794"/>
<path id="Fill 40" fill-rule="evenodd" clip-rule="evenodd" d="M235.724 46.5903L232.57 40.7549H240.455V42.1272H234.872V42.1427L237.301 46.5589L234.731 51.1009V51.1168H240.613V52.4887H232.459L235.724 46.5903Z" fill="#446794"/>
<path id="Fill 41" fill-rule="evenodd" clip-rule="evenodd" d="M250.059 55.375H251.4V37.9006H250.059V55.375Z" fill="#446794"/>
<path id="Fill 42" fill-rule="evenodd" clip-rule="evenodd" d="M264.41 46.5903L260.483 40.7549H262.186L265.356 45.4862L268.495 40.7549H270.167L266.239 46.5589L270.261 52.4887H268.574L265.309 47.6945L262.092 52.4887H260.42L264.41 46.5903Z" fill="#446794"/>
<path id="Fill 43" fill-rule="evenodd" clip-rule="evenodd" d="M273.699 40.755H280.133V42.1273H275.165V45.8648H279.77V47.1582H275.165V51.1325H280.133V52.4888H273.699V40.755Z" fill="#446794"/>
<path id="Fill 44" fill-rule="evenodd" clip-rule="evenodd" d="M284.391 52.489H285.858V40.7551H284.391V52.489Z" fill="#446794"/>
<path id="Fill 45" fill-rule="evenodd" clip-rule="evenodd" d="M293.648 47.1581C295.477 47.1581 296.629 46.2117 296.629 44.6031C296.629 43.0101 295.477 42.1271 293.648 42.1271H292.118V47.1581H293.648ZM290.652 40.7548H293.522C296.297 40.7548 298.111 42.1745 298.111 44.5717C298.111 46.9529 296.345 48.5144 293.569 48.5144H292.118V52.4887H290.652V40.7548Z" fill="#446794"/>
<path id="Fill 46" fill-rule="evenodd" clip-rule="evenodd" d="M311.28 46.6219C311.28 43.641 309.182 41.9061 306.958 41.9061C304.703 41.9061 302.621 43.641 302.621 46.6219C302.621 49.6183 304.735 51.3373 306.958 51.3373C309.182 51.3373 311.28 49.6028 311.28 46.6219M306.958 40.5183C310.302 40.5183 312.778 43.1681 312.778 46.6219C312.778 50.1072 310.302 52.7255 306.958 52.7255C303.599 52.7255 301.123 50.1232 301.123 46.6219C301.123 43.1681 303.599 40.5183 306.958 40.5183" fill="#446794"/>
<path id="Fill 47" fill-rule="evenodd" clip-rule="evenodd" d="M319.022 47.5366L314.701 40.7549H316.357L319.748 46.1803H319.764L323.123 40.7549H324.748L320.458 47.5207V52.4887H319.022V47.5366Z" fill="#446794"/>
<path id="Fill 48" fill-rule="evenodd" clip-rule="evenodd" d="M331.071 47.1581C332.9 47.1581 334.052 46.2117 334.052 44.6031C334.052 43.0101 332.9 42.1271 331.071 42.1271H329.541V47.1581H331.071ZM328.075 40.7548H330.945C333.72 40.7548 335.534 42.1745 335.534 44.5717C335.534 46.9529 333.768 48.5144 330.992 48.5144H329.541V52.4887H328.075V40.7548Z" fill="#446794"/>
<path id="Fill 49" fill-rule="evenodd" clip-rule="evenodd" d="M339.303 40.755H345.501V42.1273H340.77V52.4888H339.303V40.755Z" fill="#446794"/>
<path id="Fill 50" fill-rule="evenodd" clip-rule="evenodd" d="M357.85 46.6219C357.85 43.641 355.752 41.9061 353.528 41.9061C351.273 41.9061 349.191 43.641 349.191 46.6219C349.191 49.6183 351.305 51.3373 353.528 51.3373C355.752 51.3373 357.85 49.6028 357.85 46.6219M353.528 40.5183C356.872 40.5183 359.348 43.1681 359.348 46.6219C359.348 50.1072 356.872 52.7255 353.528 52.7255C350.169 52.7255 347.693 50.1232 347.693 46.6219C347.693 43.1681 350.169 40.5183 353.528 40.5183" fill="#446794"/>
<path id="Fill 51" fill-rule="evenodd" clip-rule="evenodd" d="M365.167 46.5903L362.012 40.7549H369.898V42.1272H364.315V42.1427L366.744 46.5589L364.173 51.1009V51.1168H370.056V52.4887H361.902L365.167 46.5903Z" fill="#446794"/>
<path id="Fill 52" fill-rule="evenodd" clip-rule="evenodd" d="M97.8382 31.4359H103L100.391 25.5728L97.8382 31.4359ZM91.4141 35.5596C91.2461 35.5596 91.1899 35.5034 91.3022 35.2793L100.447 16.1474C100.531 15.9509 100.7 15.9509 100.784 16.1474L109.901 35.2793C110.013 35.5034 109.957 35.5596 109.789 35.5596H91.4141Z" fill="#002F6D"/>
<path id="Fill 53" fill-rule="evenodd" clip-rule="evenodd" d="M119.269 25.8255C121.008 25.8255 121.934 24.8997 121.934 23.3286C121.934 21.758 121.008 20.8041 119.269 20.8041H116.913V25.8255H119.269ZM116.913 35.5597H111.807V16.4839H119.522C124.375 16.4839 127.068 19.4295 127.068 23.3286C127.068 27.2281 124.375 30.0895 119.522 30.0895H116.913V35.5597Z" fill="#002F6D"/>
<path id="Fill 54" fill-rule="evenodd" clip-rule="evenodd" d="M126.253 33.091C126.253 31.4638 127.572 30.3419 129.058 30.3419C130.517 30.3419 131.864 31.4638 131.864 33.091C131.864 34.7182 130.517 35.8401 129.058 35.8401C127.572 35.8401 126.253 34.7182 126.253 33.091" fill="#002F6D"/>
<path id="Fill 55" fill-rule="evenodd" clip-rule="evenodd" d="M140.165 16.7646C140.025 16.5401 140.081 16.4839 140.25 16.4839H154.584V20.776H148.385L151.134 25.3488C151.218 25.4887 151.218 25.5449 151.134 25.6852L147.74 31.2677H154.977V35.5597H139.969C139.801 35.5597 139.745 35.5036 139.885 35.2791L145.636 25.7975L140.165 16.7646Z" fill="#002F6D"/>
<path id="Fill 56" fill-rule="evenodd" clip-rule="evenodd" d="M157.557 35.5596H162.662V16.4842H157.557V35.5596Z" fill="#002F6D"/>
<path id="Fill 58" fill-rule="evenodd" clip-rule="evenodd" d="M183.083 16.2877C183.111 16.0912 183.223 16.1193 183.335 16.2596L192.48 26.5267L201.485 16.2596C201.597 16.1193 201.709 16.0912 201.737 16.2877L202.859 35.5596H197.838L197.389 27.4245L192.62 32.9508C192.536 33.035 192.452 33.035 192.368 32.9508L187.403 27.3964L186.954 35.5596H181.961L183.083 16.2877Z" fill="#002F6D"/>
<path id="Fill 59" fill-rule="evenodd" clip-rule="evenodd" d="M222.158 16.4841V35.5595H217.053V20.7761H210.769V35.5595H205.663V16.4841H222.158Z" fill="#002F6D"/>
<path id="Fill 60" fill-rule="evenodd" clip-rule="evenodd" d="M237.193 16.4841H242.298V35.5595H237.193V28.0976H230.572V35.5595H225.467V16.4841H230.572V23.8056H237.193V16.4841Z" fill="#002F6D"/>
<path id="Fill 61" fill-rule="evenodd" clip-rule="evenodd" d="M244.456 16.7646C244.316 16.5401 244.372 16.4839 244.541 16.4839H258.875V20.776H252.676L255.425 25.3488C255.509 25.4887 255.509 25.5449 255.425 25.6852L252.031 31.2677H259.268V35.5597H244.26C244.092 35.5597 244.036 35.5036 244.176 35.2791L249.927 25.7975L244.456 16.7646Z" fill="#002F6D"/>
<path id="Fill 62" fill-rule="evenodd" clip-rule="evenodd" d="M275.116 27.8171H280.558V24.0302H275.116V27.8171ZM282.858 26.0219C282.858 23.0202 281.035 20.692 277.837 20.692C274.639 20.692 272.816 23.0202 272.816 26.0219C272.816 29.0236 274.639 31.3798 277.837 31.3798C281.035 31.3798 282.858 29.0236 282.858 26.0219V26.0219ZM267.598 26.0219C267.598 20.271 272.339 16.2596 277.837 16.2596C283.335 16.2596 288.076 20.271 288.076 26.0219C288.076 31.7723 283.335 35.8122 277.837 35.8122C272.339 35.8122 267.598 31.7723 267.598 26.0219V26.0219Z" fill="#002F6D"/>
<path id="Fill 63" fill-rule="evenodd" clip-rule="evenodd" d="M299.913 16.2597C305.467 16.2597 310.124 20.3272 310.124 25.8816C310.124 28.0417 309.114 30.2298 307.655 31.3237H309.843V35.5596H301.399V31.6605C303.784 30.3421 304.906 28.4904 304.906 26.0219C304.906 23.1605 303.167 20.6921 299.913 20.6921C296.631 20.6921 294.863 23.1605 294.863 26.0219C294.863 28.4904 295.986 30.3421 298.37 31.6605V35.5596H289.926V31.3237H292.114C290.655 30.2298 289.646 28.0417 289.646 25.8816C289.646 20.3272 294.274 16.2597 299.913 16.2597" fill="#002F6D"/>
<path id="Fill 64" fill-rule="evenodd" clip-rule="evenodd" d="M313.236 16.2877C313.264 16.0912 313.376 16.1193 313.489 16.2596L322.633 26.5267L331.638 16.2596C331.751 16.1193 331.863 16.0912 331.891 16.2877L333.013 35.5596H327.992L327.543 27.4245L322.774 32.9508C322.69 33.035 322.606 33.035 322.521 32.9508L317.556 27.3964L317.108 35.5596H312.114L313.236 16.2877Z" fill="#002F6D"/>
<path id="Fill 65" fill-rule="evenodd" clip-rule="evenodd" d="M341.932 29.5564H345.382L343.643 25.5169L341.932 29.5564ZM347.009 33.2594H340.361L339.407 35.5595H334.414L343.699 16.1472C343.783 15.9511 343.952 15.9511 344.036 16.1472L353.293 35.5595H348.019L347.009 33.2594Z" fill="#002F6D"/>
<path id="Fill 66" fill-rule="evenodd" clip-rule="evenodd" d="M354.189 16.7646C354.049 16.5401 354.105 16.4839 354.273 16.4839H368.608V20.776H362.408L365.158 25.3488C365.242 25.4887 365.242 25.5449 365.158 25.6852L361.763 31.2677H369.001V35.5597H353.993C353.825 35.5597 353.769 35.5036 353.909 35.2791L359.659 25.7975L354.189 16.7646Z" fill="#002F6D"/>
</g>
<path id="Fill 57" fill-rule="evenodd" clip-rule="evenodd" d="M166.084 16.4841H179.465V20.7761H171.19V23.9178H178.09V27.9854H171.19V31.2678H179.858V35.5595H166.084V16.4841Z" fill="#002F6D"/>
</g>
</g>
</g>
<g id="Group Copy 4">
<path id="Fill 204" fill-rule="evenodd" clip-rule="evenodd" d="M35 0C15.6702 0 0 15.67 0 35H10.0003C10.0003 21.193 21.1931 10 35 10V0Z" fill="#002F6D"/>
<path id="Fill 205" fill-rule="evenodd" clip-rule="evenodd" d="M50.0001 35C50.0001 43.284 43.2851 50 35.0002 50C26.7163 50 20.0004 43.284 20.0004 35H10C10 48.807 21.1933 60 35.0002 60C48.8081 60 60 48.807 60 35H50.0001Z" fill="#829CBE"/>
<path id="Fill 206" fill-rule="evenodd" clip-rule="evenodd" d="M35 20C26.716 20 20 26.715 20 35H35H50C50 26.715 43.285 20 35 20" fill="#829CBE"/>
<path id="Fill 207" fill-rule="evenodd" clip-rule="evenodd" d="M59.9433 35C59.9433 48.8069 48.6877 59.9997 34.8014 59.9997C27.9029 59.9997 21.6545 57.2368 17.1115 52.7636L10 59.8349C16.3627 66.1179 25.1257 70 34.8014 70C54.2411 70 70 54.3298 70 35H59.9433Z" fill="#002F6D"/>
</g>
</g>
</svg>
