<svg width="170" height="67" viewBox="0 0 170 67" fill="none" xmlns="http://www.w3.org/2000/svg">
<g id="Group 40">
<g id="Group 39">
<path id="Fill 52" fill-rule="evenodd" clip-rule="evenodd" d="M4.01796 63.3883H7.16303L5.57328 59.7478L4.01796 63.3883ZM0.103775 65.9488C0.00139614 65.9488 -0.032807 65.9139 0.0355993 65.7747L5.60748 53.8955C5.65879 53.7735 5.7614 53.7735 5.8127 53.8955L11.3677 65.7747C11.4361 65.9139 11.4019 65.9488 11.2993 65.9488H0.103775Z" fill="#002F6D"/>
<path id="Fill 53" fill-rule="evenodd" clip-rule="evenodd" d="M17.0757 59.9048C18.1353 59.9048 18.6994 59.33 18.6994 58.3545C18.6994 57.3792 18.1353 56.7869 17.0757 56.7869H15.64V59.9048H17.0757ZM15.64 65.9489H12.5292V54.1045H17.2296C20.1865 54.1045 21.8274 55.9335 21.8274 58.3545C21.8274 60.7757 20.1865 62.5524 17.2296 62.5524H15.64V65.9489Z" fill="#002F6D"/>
<path id="Fill 54" fill-rule="evenodd" clip-rule="evenodd" d="M21.3312 64.4159C21.3312 63.4056 22.1345 62.709 23.0404 62.709C23.9292 62.709 24.7496 63.4056 24.7496 64.4159C24.7496 65.4263 23.9292 66.1229 23.0404 66.1229C22.1345 66.1229 21.3312 65.4263 21.3312 64.4159" fill="#002F6D"/>
<path id="Fill 55" fill-rule="evenodd" clip-rule="evenodd" d="M29.8078 54.2788C29.7223 54.1393 29.7565 54.1045 29.8591 54.1045H38.5931V56.7695H34.8158L36.4908 59.6088C36.5421 59.6957 36.5421 59.7306 36.4908 59.8177L34.4226 63.2839H38.8325V65.9489H29.6881C29.5857 65.9489 29.5515 65.9141 29.637 65.7746L33.1407 59.8874L29.8078 54.2788Z" fill="#002F6D"/>
<path id="Fill 56" fill-rule="evenodd" clip-rule="evenodd" d="M40.4045 65.9487H43.5152V54.1045H40.4045V65.9487Z" fill="#002F6D"/>
<path id="Fill 58" fill-rule="evenodd" clip-rule="evenodd" d="M55.9572 53.9826C55.9743 53.8607 56.0427 53.8781 56.1111 53.9652L61.683 60.3402L67.1696 53.9652C67.238 53.8781 67.3064 53.8607 67.3235 53.9826L68.0071 65.9488H64.9477L64.6741 60.8976L61.7685 64.329C61.7172 64.3813 61.6661 64.3813 61.6146 64.329L58.5894 60.8802L58.316 65.9488H55.2736L55.9572 53.9826Z" fill="#002F6D"/>
<path id="Fill 59" fill-rule="evenodd" clip-rule="evenodd" d="M79.7655 54.1045V65.9487H76.6549V56.7695H72.8262V65.9487H69.7153V54.1045H79.7655Z" fill="#002F6D"/>
<path id="Fill 60" fill-rule="evenodd" clip-rule="evenodd" d="M88.9263 54.1045H92.0369V65.9487H88.9263V61.3155H84.8924V65.9487H81.7817V54.1045H84.8924V58.6505H88.9263V54.1045Z" fill="#002F6D"/>
<path id="Fill 61" fill-rule="evenodd" clip-rule="evenodd" d="M93.3521 54.2788C93.2666 54.1393 93.3008 54.1045 93.4034 54.1045H102.137V56.7695H98.3601L100.035 59.6088C100.086 59.6957 100.086 59.7306 100.035 59.8177L97.967 63.2839H102.377V65.9489H93.2324C93.13 65.9489 93.0958 65.9141 93.1813 65.7746L96.685 59.8874L93.3521 54.2788Z" fill="#002F6D"/>
<path id="Fill 62" fill-rule="evenodd" clip-rule="evenodd" d="M112.033 61.1413H115.349V58.7899H112.033V61.1413ZM116.75 60.0266C116.75 58.1628 115.639 56.7172 113.691 56.7172C111.742 56.7172 110.631 58.1628 110.631 60.0266C110.631 61.8904 111.742 63.3534 113.691 63.3534C115.639 63.3534 116.75 61.8904 116.75 60.0266V60.0266ZM107.452 60.0266C107.452 56.4558 110.341 53.9651 113.691 53.9651C117.041 53.9651 119.929 56.4558 119.929 60.0266C119.929 63.5971 117.041 66.1055 113.691 66.1055C110.341 66.1055 107.452 63.5971 107.452 60.0266V60.0266Z" fill="#002F6D"/>
<path id="Fill 63" fill-rule="evenodd" clip-rule="evenodd" d="M127.142 53.9651C130.526 53.9651 133.363 56.4907 133.363 59.9395C133.363 61.2807 132.748 62.6393 131.859 63.3185H133.192V65.9487H128.047V63.5277C129.5 62.709 130.184 61.5593 130.184 60.0266C130.184 58.2499 129.124 56.7172 127.142 56.7172C125.142 56.7172 124.065 58.2499 124.065 60.0266C124.065 61.5593 124.749 62.709 126.201 63.5277V65.9487H121.057V63.3185H122.39C121.501 62.6393 120.886 61.2807 120.886 59.9395C120.886 56.4907 123.706 53.9651 127.142 53.9651" fill="#002F6D"/>
<path id="Fill 64" fill-rule="evenodd" clip-rule="evenodd" d="M135.259 53.9826C135.277 53.8607 135.345 53.8781 135.413 53.9652L140.985 60.3402L146.472 53.9652C146.54 53.8781 146.609 53.8607 146.626 53.9826L147.309 65.9488H144.25L143.976 60.8976L141.071 64.329C141.019 64.3813 140.968 64.3813 140.917 64.329L137.892 60.8802L137.618 65.9488H134.576L135.259 53.9826Z" fill="#002F6D"/>
<path id="Fill 65" fill-rule="evenodd" clip-rule="evenodd" d="M152.744 62.2212H154.846L153.786 59.713L152.744 62.2212ZM155.837 64.5205H151.786L151.205 65.9486H148.163L153.82 53.8953C153.872 53.7735 153.974 53.7735 154.026 53.8953L159.666 65.9486H156.453L155.837 64.5205Z" fill="#002F6D"/>
<path id="Fill 66" fill-rule="evenodd" clip-rule="evenodd" d="M160.212 54.2788C160.127 54.1393 160.161 54.1045 160.263 54.1045H168.997V56.7695H165.22L166.895 59.6088C166.946 59.6957 166.946 59.7306 166.895 59.8177L164.827 63.2839H169.237V65.9489H160.092C159.99 65.9489 159.956 65.9141 160.041 65.7746L163.545 59.8874L160.212 54.2788Z" fill="#002F6D"/>
<path id="Fill 57" fill-rule="evenodd" clip-rule="evenodd" d="M45.6002 54.1045H53.7531V56.7695H48.7109V58.7202H52.9155V61.2458H48.7109V63.2839H53.9925V65.9487H45.6002V54.1045Z" fill="#002F6D"/>
</g>
<g id="Group 27">
<path id="Fill 204" fill-rule="evenodd" clip-rule="evenodd" d="M84.902 0C73.3582 0 64 9.35808 64 20.902H69.9722C69.9722 12.6564 76.6565 5.97199 84.902 5.97199V0Z" fill="#002F6D"/>
<path id="Fill 205" fill-rule="evenodd" clip-rule="evenodd" d="M93.8601 20.9019C93.8601 25.8491 89.8499 29.8598 84.9022 29.8598C79.955 29.8598 75.9443 25.8491 75.9443 20.9019H69.972C69.972 29.1474 76.6567 35.8318 84.9022 35.8318C93.1482 35.8318 99.832 29.1474 99.832 20.9019H93.8601Z" fill="#829CBE"/>
<path id="Fill 206" fill-rule="evenodd" clip-rule="evenodd" d="M84.902 11.9441C79.9547 11.9441 75.944 15.9543 75.944 20.9021H84.902H93.8599C93.8599 15.9543 89.8497 11.9441 84.902 11.9441" fill="#829CBE"/>
<path id="Fill 207" fill-rule="evenodd" clip-rule="evenodd" d="M99.7981 20.9019C99.7981 29.1473 93.0763 35.8316 84.7834 35.8316C80.6636 35.8316 76.9321 34.1816 74.219 31.5103L69.972 35.7332C73.7718 39.4854 79.0051 41.8038 84.7834 41.8038C96.3928 41.8038 105.804 32.4456 105.804 20.9019H99.7981Z" fill="#002F6D"/>
</g>
</g>
</svg>
