<svg width="200" height="200" viewBox="0 0 200 200" fill="none" xmlns="http://www.w3.org/2000/svg">
<g id="Group 19">
<g id="Group 20">
<path id="Shape" fill-rule="evenodd" clip-rule="evenodd" d="M100 36.25C147.193 36.25 186.726 79.7733 197.718 93.1092C200.761 96.7361 200.761 102.014 197.718 105.641C186.726 118.977 147.193 162.5 100 162.5C52.8074 162.5 13.2736 118.977 2.28186 105.641C-0.760621 102.014 -0.760621 96.7361 2.28186 93.1092C13.2736 79.7733 52.8074 36.25 100 36.25ZM100 155.855C144.27 155.855 182.047 114.19 192.569 101.415V101.422C193.566 100.238 193.566 98.5122 192.569 97.3288C182.047 84.561 144.27 42.8951 100 42.8951C55.7302 42.8951 17.9529 84.561 7.43109 97.3288C6.43447 98.5122 6.43447 100.238 7.43109 101.422C17.9529 114.19 55.7302 155.855 100 155.855Z" fill="#BFC3CA"/>
<path id="Shape_1_" fill-rule="evenodd" clip-rule="evenodd" d="M50 100C50 72.3857 72.3857 50 100 50C127.601 50.0313 149.969 72.3988 150 100C150 127.614 127.614 150 100 150C72.3857 150 50 127.614 50 100ZM56.6667 100C56.6667 123.932 76.0677 143.333 100 143.333C123.921 143.306 143.306 123.921 143.333 100C143.333 76.0677 123.932 56.6667 100 56.6667C76.0677 56.6667 56.6667 76.0677 56.6667 100Z" fill="#BFC3CA"/>
<path id="Shape_2_" fill-rule="evenodd" clip-rule="evenodd" d="M80 100C80 88.9542 88.9542 80 100 80C111.041 80.0109 119.989 88.9588 120 100C120 111.045 111.045 120 100 120C88.9545 120 80 111.046 80 100ZM86.6664 100C86.6664 107.364 92.6362 113.334 100 113.334C107.364 113.334 113.334 107.364 113.334 100C113.334 92.6359 107.364 86.6664 100 86.6664C92.6359 86.6664 86.6664 92.6359 86.6664 100Z" fill="#BFC3CA"/>
</g>
<path id="Shape_3_" d="M59.5816 15C60.0577 14.9997 60.5283 14.9002 60.9617 14.7084C65.1299 12.8688 69.4314 11.3297 73.8322 10.1033C75.6024 9.61158 76.6268 7.81864 76.1207 6.09891C75.6145 4.37918 73.769 3.38392 71.9989 3.87564C67.2811 5.18997 62.6697 6.84064 58.2017 8.81422C56.7748 9.44597 55.9939 10.9585 56.3259 12.4474C56.658 13.9366 58.0135 14.999 59.5816 15Z" fill="#BFC3CA"/>
<path id="Shape_4_" d="M33.3321 33.75C34.1878 33.7503 35.011 33.417 35.6306 32.8198C39.6106 28.985 43.9157 25.5109 48.4963 22.4373C49.4944 21.7746 50.0657 20.6225 49.994 19.4172C49.9223 18.2119 49.2181 17.1374 48.1483 16.6008C47.0785 16.0641 45.807 16.148 44.8151 16.8197C39.9086 20.1115 35.2971 23.8329 31.0335 27.9401C30.0472 28.8906 29.7325 30.3527 30.2386 31.6322C30.7448 32.9116 31.9698 33.7503 33.3321 33.75V33.75Z" fill="#BFC3CA"/>
<path id="Shape_5_" d="M12.9904 55.8384C13.4941 56.1108 14.0613 56.2526 14.638 56.25C15.8745 56.2516 17.0137 55.5991 17.6108 54.5473C19.9266 50.4765 22.5544 46.5807 25.472 42.8926C26.2621 41.9647 26.4679 40.6918 26.0088 39.5731C25.5496 38.4544 24.4985 37.6686 23.2676 37.5239C22.037 37.3792 20.8229 37.8985 20.102 38.878C16.9722 42.8279 14.155 47.0024 11.6745 51.3661C10.7699 52.9543 11.3583 54.9544 12.9904 55.8384V55.8384Z" fill="#BFC3CA"/>
<path id="Shape_6_" d="M10.4214 63.9553C9.63107 63.6499 8.75736 63.6864 7.99275 64.057C7.22815 64.4276 6.63502 65.1022 6.3441 65.9319C4.7688 70.429 3.50699 75.0404 2.56839 79.7297C2.3944 80.5952 2.55554 81.498 3.01575 82.2388C3.47627 82.9796 4.19824 83.4982 5.02304 83.6799C5.23935 83.7263 5.45942 83.7497 5.68043 83.75C7.18018 83.7477 8.47397 82.6439 8.78276 81.103C9.66022 76.7293 10.8374 72.428 12.3045 68.2319C12.9086 66.5052 12.0657 64.5911 10.4214 63.9553V63.9553Z" fill="#BFC3CA"/>
<path id="Shape_7_" d="M86.3776 7.46319C95.0224 6.30868 103.788 6.30868 112.432 7.46319C112.586 7.48436 112.74 7.49413 112.895 7.49283C114.661 7.48436 116.122 6.14324 116.242 4.4188C116.362 2.69437 115.102 1.17152 113.353 0.927922C104.095 -0.309307 94.7081 -0.309307 85.4501 0.927922C84.2452 1.07675 83.2151 1.84762 82.7534 2.94644C82.2916 4.04526 82.4694 5.3017 83.2185 6.23671C83.9679 7.17139 85.1731 7.64003 86.3739 7.46319H86.3776Z" fill="#BFC3CA"/>
<path id="Shape_8_" d="M126.159 10.0894C130.545 11.3114 134.831 12.8454 138.985 14.6793C140.07 15.1882 141.353 15.0858 142.339 14.4124C143.324 13.7389 143.857 12.5993 143.732 11.4344C143.607 10.2696 142.843 9.26166 141.735 8.80089C137.283 6.83251 132.688 5.18586 127.986 3.87531C126.222 3.38488 124.383 4.37753 123.879 6.09273C123.375 7.80793 124.395 9.59616 126.159 10.0866V10.0894Z" fill="#BFC3CA"/>
<path id="Shape_9_" d="M151.619 22.4943C156.17 25.5523 160.449 29.0088 164.404 32.8242C165.728 34.1018 167.824 34.0508 169.086 32.7103C170.347 31.3698 170.297 29.2471 168.973 27.9695C164.736 23.8831 160.153 20.1806 155.277 16.9055C154.292 16.169 152.986 16.0432 151.882 16.5784C150.777 17.1137 150.055 18.2228 150.003 19.4617C149.951 20.7006 150.579 21.8674 151.636 22.4946H151.619V22.4943Z" fill="#BFC3CA"/>
<path id="Shape_10_" d="M178.655 38.8781C177.933 37.8985 176.718 37.379 175.485 37.524C174.254 37.6687 173.201 38.4548 172.741 39.5732C172.282 40.6916 172.488 41.9648 173.279 42.8926C176.2 46.5804 178.831 50.4766 181.149 54.5474C181.744 55.5949 182.879 56.2467 184.112 56.25C185.312 56.248 186.421 55.6316 187.03 54.629C187.639 53.626 187.657 52.3857 187.078 51.3661C184.599 47.0031 181.783 42.8286 178.655 38.8781V38.8781Z" fill="#BFC3CA"/>
<path id="Shape_11_" d="M191.208 81.0976C191.518 82.6416 192.813 83.7474 194.315 83.75C194.536 83.7497 194.757 83.7263 194.973 83.6798C195.799 83.4977 196.522 82.978 196.983 82.2357C197.445 81.4934 197.606 80.5888 197.431 79.7215C196.491 75.0225 195.228 70.4017 193.65 65.8953C193.028 64.1897 191.216 63.3257 189.584 63.9559C187.951 64.5861 187.104 66.4771 187.681 68.2001C189.151 72.4048 190.329 76.7152 191.208 81.0976V81.0976Z" fill="#BFC3CA"/>
<path id="Shape_12_" d="M71.9849 196.124C73.7609 196.617 75.6125 195.619 76.1203 193.894C76.6281 192.17 75.6002 190.371 73.8243 189.878C69.4093 188.65 65.0933 187.107 60.9115 185.263C59.2405 184.568 57.3037 185.297 56.5509 186.904C55.7982 188.51 56.5051 190.407 58.1423 191.174C62.625 193.153 67.2516 194.807 71.9849 196.124Z" fill="#BFC3CA"/>
<path id="Shape_13_" d="M46.6667 183.75C48.1366 183.75 49.4331 182.775 49.8577 181.352C50.2822 179.929 49.7349 178.392 48.5105 177.569C43.9267 174.494 39.6183 171.018 35.6348 167.181C34.3018 165.896 32.1911 165.947 30.9206 167.296C29.6502 168.644 29.7009 170.778 31.0339 172.063C35.3008 176.173 39.9159 179.896 44.8262 183.19C45.3716 183.557 46.0121 183.751 46.6667 183.75Z" fill="#BFC3CA"/>
<path id="Shape_14_" d="M20.0912 161.119C20.8133 162.101 22.0293 162.621 23.2623 162.476C24.495 162.331 25.5481 161.543 26.0084 160.422C26.4683 159.301 26.2622 158.025 25.4706 157.095C22.5479 153.4 19.9155 149.495 17.5956 145.415C16.6753 143.848 14.6313 143.29 13.006 144.161C11.3807 145.033 10.7766 147.011 11.6496 148.603C14.1338 152.976 16.9559 157.16 20.0912 161.119Z" fill="#BFC3CA"/>
<path id="Shape_15_" d="M8.79434 118.931C8.57001 117.755 7.76117 116.795 6.67624 116.419C5.59099 116.042 4.39656 116.306 3.54819 117.11C2.69983 117.914 2.32835 119.134 2.57495 120.305C3.51431 124.996 4.77714 129.609 6.35371 134.108C6.97587 135.811 8.78649 136.674 10.4177 136.044C12.0488 135.415 12.8959 133.527 12.319 131.807C10.8503 127.609 9.67251 123.306 8.79434 118.931V118.931Z" fill="#BFC3CA"/>
<path id="Shape_16_" d="M99.375 200C104.034 200 108.688 199.688 113.305 199.067C114.508 198.918 115.536 198.148 115.997 197.05C116.458 195.953 116.281 194.697 115.533 193.762C114.785 192.828 113.581 192.36 112.382 192.537C103.751 193.69 94.9992 193.69 86.368 192.537C85.169 192.36 83.9657 192.828 83.2174 193.762C82.4692 194.696 82.292 195.952 82.7531 197.05C83.2141 198.148 84.2426 198.919 85.4455 199.067C90.0613 199.688 94.7157 200 99.375 200Z" fill="#BFC3CA"/>
<path id="Shape_17_" d="M127.078 196.25C127.386 196.249 127.694 196.207 127.991 196.124C132.691 194.813 137.285 193.167 141.736 191.199C142.843 190.738 143.607 189.73 143.732 188.565C143.857 187.401 143.324 186.261 142.339 185.588C141.354 184.914 140.071 184.812 138.986 185.321C134.834 187.155 130.549 188.69 126.165 189.914C124.569 190.354 123.552 191.872 123.782 193.469C124.013 195.066 125.419 196.253 127.078 196.25V196.25Z" fill="#BFC3CA"/>
<path id="Shape_18_" d="M153.334 183.75C153.988 183.752 154.629 183.557 155.174 183.19C160.084 179.897 164.699 176.173 168.966 172.063C170.299 170.779 170.35 168.644 169.079 167.296C167.809 165.947 165.698 165.896 164.365 167.181C160.382 171.018 156.074 174.494 151.49 177.57C150.265 178.392 149.718 179.929 150.142 181.353C150.567 182.776 151.864 183.749 153.334 183.75V183.75Z" fill="#BFC3CA"/>
<path id="Shape_19_" d="M185.749 144.161C184.962 143.738 184.034 143.637 183.17 143.879C182.305 144.121 181.576 144.687 181.141 145.452C178.825 149.523 176.196 153.419 173.278 157.107C172.488 158.035 172.282 159.308 172.741 160.427C173.201 161.546 174.252 162.331 175.483 162.476C176.714 162.621 177.928 162.102 178.649 161.122C181.779 157.172 184.597 152.997 187.078 148.633C187.981 147.042 187.387 145.04 185.749 144.161V144.161Z" fill="#BFC3CA"/>
<path id="Shape_20_" d="M189.577 136.045C190.367 136.35 191.24 136.313 192.004 135.944C192.768 135.573 193.361 134.9 193.652 134.072C195.226 129.582 196.487 124.978 197.425 120.297C197.671 119.128 197.3 117.91 196.453 117.108C195.606 116.306 194.414 116.043 193.33 116.418C192.246 116.794 191.439 117.752 191.215 118.925C190.338 123.292 189.162 127.586 187.695 131.775C187.092 133.499 187.934 135.41 189.577 136.045V136.045Z" fill="#BFC3CA"/>
<path id="Shape_21_" d="M3.28117 26.25C5.09328 26.25 6.56234 24.781 6.56234 22.9689V6.56258H22.9688C24.7809 6.56258 26.25 5.09354 26.25 3.28145C26.25 1.46937 24.7813 0 22.9692 0H6.56266C2.93812 0 0 2.93808 0 6.56258V22.9689C0 24.781 1.46906 26.25 3.28117 26.25Z" fill="#BFC3CA"/>
<path id="Shape_22_" d="M177.031 6.56258H193.438V22.9689C193.438 24.781 194.907 26.25 196.719 26.25C198.531 26.25 200 24.781 200 22.9689V6.56258C200 2.93808 197.062 0 193.437 0H177.031C175.219 0 173.75 1.46904 173.75 3.28113C173.75 5.09322 175.219 6.56258 177.031 6.56258Z" fill="#BFC3CA"/>
<path id="Shape_23_" d="M0 177.031V193.437C0 197.062 2.93808 200 6.56258 200H22.9689C24.781 200 26.25 198.531 26.25 196.719C26.25 194.907 24.781 193.438 22.9689 193.438H6.56258V177.031C6.56258 175.219 5.09354 173.75 3.28145 173.75C1.46937 173.75 0 175.219 0 177.031Z" fill="#BFC3CA"/>
<path id="Shape_24_" d="M196.719 173.75C194.906 173.75 193.437 175.219 193.437 177.031V193.438H177.031C175.219 193.438 173.75 194.907 173.75 196.719C173.75 198.531 175.219 200 177.031 200H193.437C197.062 200 200 197.062 200 193.437V177.031C200 175.219 198.531 173.75 196.719 173.75Z" fill="#BFC3CA"/>
</g>
</svg>
