<svg width="430" height="430" viewBox="0 0 430 430" fill="none" xmlns="http://www.w3.org/2000/svg">
<g id="Group Copy 5" opacity="0.12">
<path id="Fill 204" fill-rule="evenodd" clip-rule="evenodd" d="M215 0C96.2599 0 0 96.2583 0 215L61.4306 215C61.4306 130.185 130.186 61.4286 215 61.4286L215 0Z" fill="#002F6D"/>
<path id="Fill 205" fill-rule="evenodd" clip-rule="evenodd" d="M306.401 215C306.401 265.698 265.036 306.8 214.001 306.8C162.972 306.8 121.602 265.698 121.602 215L60 215C60 299.499 128.951 368 214.001 368C299.058 368 368 299.499 368 215L306.401 215Z" fill="#829CBE"/>
<path id="Fill 206" fill-rule="evenodd" clip-rule="evenodd" d="M215.5 122C164.967 122 124 163.633 124 215L215.5 215L307 215C307 163.633 266.038 122 215.5 122" fill="#829CBE"/>
<path id="Fill 207" fill-rule="evenodd" clip-rule="evenodd" d="M368.822 215C368.822 299.814 300.35 368.569 215.875 368.569C173.909 368.569 135.898 351.597 108.262 324.119L65 367.557C103.706 406.153 157.015 430 215.875 430C334.134 430 430 333.74 430 215H368.822Z" fill="#002F6D"/>
</g>
</svg>
