<svg width="47" height="47" viewBox="0 0 47 47" fill="none" xmlns="http://www.w3.org/2000/svg">
<circle cx="23.5" cy="23.5" r="23" stroke="#002F6D"/>
<path d="M34.732 29.6998C34.6682 29.5075 34.2622 29.2243 33.5143 28.8508C33.3117 28.733 33.023 28.573 32.6494 28.3701C32.2755 28.1671 31.9362 27.98 31.6319 27.8091C31.3271 27.6382 31.0414 27.4726 30.7746 27.3126C30.7319 27.2806 30.5984 27.1873 30.3741 27.0321C30.1495 26.8773 29.9602 26.7624 29.805 26.6875C29.6502 26.613 29.4978 26.5755 29.3483 26.5755C29.1347 26.5755 28.8679 26.7278 28.5475 27.0321C28.2272 27.3367 27.9333 27.6675 27.6664 28.0257C27.3994 28.3837 27.1163 28.7146 26.8175 29.019C26.5182 29.3236 26.2723 29.4757 26.0803 29.4757C25.9839 29.4757 25.8636 29.4488 25.7196 29.3958C25.5756 29.3424 25.466 29.2967 25.3908 29.2598C25.3163 29.2222 25.1884 29.1476 25.0066 29.0351C24.8246 28.9229 24.7233 28.8615 24.702 28.8508C23.2386 28.0388 21.9835 27.1094 20.9365 26.063C19.8899 25.0159 18.9604 23.761 18.1486 22.2975C18.1379 22.2761 18.0764 22.1746 17.9643 21.9931C17.852 21.8115 17.7772 21.6835 17.7398 21.6085C17.7025 21.5338 17.6571 21.4242 17.6037 21.2801C17.5504 21.1359 17.5237 21.0158 17.5237 20.9196C17.5237 20.7274 17.6759 20.4816 17.9804 20.1825C18.2848 19.8835 18.616 19.6004 18.9738 19.3335C19.3318 19.0667 19.6627 18.7728 19.9672 18.4525C20.2716 18.132 20.4238 17.8651 20.4238 17.6515C20.4238 17.5021 20.3864 17.3497 20.3117 17.1949C20.237 17.0397 20.1221 16.8503 19.9672 16.6259C19.8122 16.4016 19.7187 16.2682 19.6866 16.2253C19.5266 15.9584 19.3612 15.6727 19.1901 15.3683C19.0189 15.0639 18.8322 14.7246 18.6291 14.3508C18.4262 13.9771 18.2661 13.6886 18.1485 13.4857C17.7748 12.7381 17.4918 12.332 17.2994 12.2682C17.2246 12.2361 17.1124 12.22 16.963 12.22C16.6744 12.22 16.2979 12.2733 15.8333 12.3802C15.3685 12.487 15.0027 12.5991 14.7356 12.7167C14.2015 12.9409 13.6354 13.5925 13.0371 14.6712C12.4923 15.675 12.22 16.6686 12.22 17.6512C12.22 17.9394 12.2387 18.2198 12.276 18.4924C12.3134 18.7647 12.3802 19.0719 12.4765 19.4138C12.5725 19.7555 12.65 20.0094 12.7086 20.1747C12.7673 20.3402 12.8768 20.6366 13.0371 21.064C13.1971 21.4913 13.2934 21.7528 13.3254 21.849C13.6993 22.8958 14.1426 23.8304 14.6553 24.6529C15.4988 26.0201 16.6499 27.433 18.108 28.8911C19.5661 30.3491 20.9789 31.5001 22.3462 32.3439C23.1687 32.8565 24.1037 33.2998 25.1504 33.6739C25.2466 33.7057 25.5082 33.8018 25.9354 33.9624C26.3627 34.1225 26.6592 34.232 26.8246 34.2908C26.9901 34.3496 27.2441 34.4271 27.5856 34.5234C27.9278 34.6196 28.2347 34.6864 28.5071 34.7241C28.7796 34.7609 29.0601 34.78 29.3483 34.78C30.3309 34.78 31.3246 34.5075 32.3287 33.9628C33.4074 33.3647 34.0588 32.7986 34.2831 32.2641C34.4011 31.9973 34.5128 31.6314 34.6196 31.1667C34.7268 30.7021 34.78 30.3257 34.78 30.0372C34.7803 29.8872 34.7642 29.7752 34.732 29.6998Z" fill="#002F6D"/>
</svg>
