<svg width="19" height="25" viewBox="0 0 19 25" fill="none" xmlns="http://www.w3.org/2000/svg">
<g id="pin">
<path id="Shape" fill-rule="evenodd" clip-rule="evenodd" d="M0 9.37499C0.00681783 4.20017 4.1716 0.00686452 9.31122 0C14.4508 0.00686452 18.6156 4.20017 18.6224 9.37499C18.6224 16.1054 9.94749 24.5351 9.57892 24.8906C9.42986 25.0365 9.19259 25.0365 9.04353 24.8906C8.67496 24.5351 0 16.1054 0 9.37499ZM5.04358 9.37499C5.04358 11.7481 6.95427 13.6719 9.31122 13.6719C11.6676 13.6704 13.5775 11.7475 13.5789 9.37499C13.5789 7.00189 11.6682 5.07812 9.31122 5.07812C6.95427 5.07812 5.04358 7.00189 5.04358 9.37499Z" fill="#002F6D"/>
</g>
</svg>
