<svg width="70" height="70" viewBox="0 0 70 70" fill="none" xmlns="http://www.w3.org/2000/svg">
<g id="Group 35">
<g id="Group Copy 4">
<path id="Fill 204" fill-rule="evenodd" clip-rule="evenodd" d="M35 0C15.6702 0 0 15.67 0 35H10.0003C10.0003 21.193 21.1931 10 35 10V0Z" fill="#002F6D"/>
<path id="Fill 205" fill-rule="evenodd" clip-rule="evenodd" d="M50.0001 35C50.0001 43.284 43.2851 50 35.0002 50C26.7163 50 20.0004 43.284 20.0004 35H10C10 48.807 21.1933 60 35.0002 60C48.8081 60 60 48.807 60 35H50.0001Z" fill="#829CBE"/>
<path id="Fill 206" fill-rule="evenodd" clip-rule="evenodd" d="M35 20C26.716 20 20 26.715 20 35H35H50C50 26.715 43.285 20 35 20" fill="#829CBE"/>
<path id="Fill 207" fill-rule="evenodd" clip-rule="evenodd" d="M59.9433 35C59.9433 48.8069 48.6877 59.9997 34.8014 59.9997C27.9029 59.9997 21.6545 57.2368 17.1115 52.7636L10 59.8349C16.3627 66.1179 25.1257 70 34.8014 70C54.2411 70 70 54.3298 70 35H59.9433Z" fill="#002F6D"/>
</g>
</g>
</svg>
