<svg width="13" height="13" viewBox="0 0 13 13" fill="none" xmlns="http://www.w3.org/2000/svg">
<path id="Path Copy 2" d="M12.9723 10.0726C12.9356 9.96181 12.7016 9.7986 12.2707 9.58335C12.1539 9.51551 11.9875 9.42331 11.7723 9.30634C11.5568 9.18937 11.3613 9.08159 11.186 8.98309C11.0103 8.88462 10.8457 8.78922 10.6919 8.69702C10.6673 8.67856 10.5904 8.62478 10.4611 8.53533C10.3318 8.44614 10.2226 8.37994 10.1332 8.33677C10.044 8.29386 9.95622 8.27226 9.87003 8.27226C9.74694 8.27226 9.5932 8.36002 9.4086 8.53533C9.224 8.71086 9.05466 8.90153 8.90085 9.10791C8.74701 9.3142 8.58385 9.50487 8.41167 9.6803C8.23923 9.8558 8.09755 9.94347 7.98688 9.94347C7.93132 9.94347 7.86205 9.92798 7.77903 9.89742C7.69604 9.86667 7.63291 9.84031 7.58958 9.81907C7.54663 9.79737 7.47293 9.75442 7.36821 9.68958C7.2633 9.62494 7.20495 9.58953 7.19267 9.58335C6.34939 9.11545 5.62616 8.57992 5.02285 7.97691C4.41974 7.37354 3.88411 6.65042 3.41631 5.8071C3.41017 5.79478 3.37469 5.73628 3.3101 5.6317C3.24542 5.52702 3.20231 5.45325 3.18077 5.41005C3.15924 5.36701 3.13307 5.30388 3.10235 5.22081C3.07163 5.13773 3.0562 5.06853 3.0562 5.01306C3.0562 4.90234 3.14394 4.7607 3.31939 4.58833C3.4948 4.41607 3.68567 4.25289 3.89181 4.09912C4.09811 3.94535 4.28879 3.77602 4.46427 3.59144C4.63968 3.40675 4.72739 3.25295 4.72739 3.12987C4.72739 3.04375 4.70585 2.95596 4.66281 2.86673C4.61973 2.77732 4.55356 2.66821 4.46427 2.53889C4.37494 2.40963 4.3211 2.33276 4.3026 2.30802C4.21036 2.15425 4.11506 1.98962 4.01645 1.81418C3.91784 1.63878 3.81022 1.44326 3.69321 1.22786C3.5763 1.01255 3.48403 0.846296 3.41624 0.72936C3.20092 0.29858 3.03783 0.0645798 2.927 0.0277787C2.88389 0.00931345 2.81921 0 2.73312 0C2.56682 0 2.34989 0.0307215 2.08214 0.0923584C1.8143 0.153898 1.60353 0.218446 1.44963 0.286259C1.14184 0.415451 0.815625 0.7909 0.470876 1.41248C0.156948 1.99095 0 2.5635 0 3.12971C0 3.29577 0.0107694 3.45733 0.0323081 3.61443C0.0538468 3.77137 0.0923318 3.94836 0.147796 4.14536C0.203162 4.3423 0.247824 4.4886 0.281588 4.58387C0.315384 4.6792 0.37848 4.84998 0.470844 5.09627C0.563079 5.3425 0.618542 5.49323 0.637009 5.54862C0.852428 6.15186 1.10788 6.69039 1.40331 7.16438C1.88939 7.9522 2.55272 8.76639 3.39293 9.6066C4.23316 10.4468 5.04724 11.11 5.83518 11.5963C6.30913 11.8916 6.84788 12.147 7.45106 12.3626C7.5065 12.381 7.65723 12.4363 7.90338 12.5289C8.14962 12.6212 8.32047 12.6842 8.41581 12.7181C8.51118 12.752 8.65752 12.7967 8.85431 12.8521C9.05153 12.9076 9.22836 12.9461 9.38531 12.9678C9.54236 12.989 9.70396 13 9.87006 13C10.4363 13 11.0089 12.843 11.5875 12.5291C12.209 12.1845 12.5844 11.8582 12.7137 11.5502C12.7817 11.3965 12.8461 11.1857 12.9076 10.9179C12.9693 10.6502 13 10.4333 13 10.267C13.0002 10.1806 12.9909 10.1161 12.9723 10.0726Z" fill="#002F6D"/>
</svg>
