<svg width="23" height="17" viewBox="0 0 23 17" fill="none" xmlns="http://www.w3.org/2000/svg">
<path fill-rule="evenodd" clip-rule="evenodd" d="M3.21486 0.5H19.6765C21.2869 0.501848 22.5918 1.80686 22.5936 3.41721V13.5828C22.5919 15.1932 21.2869 16.4982 19.6766 16.5H3.21481C1.60442 16.4982 0.299383 15.1932 0.297607 13.5828V3.41721C0.299407 1.80681 1.60446 0.501776 3.21486 0.5ZM15.7306 8.5C15.7306 8.25104 15.5978 8.02099 15.3823 7.89644L10.0338 4.80853C9.81818 4.68405 9.55255 4.68407 9.33696 4.80857C9.12138 4.93307 8.9886 5.16314 8.98865 5.41209V8.5V11.5879C8.9886 11.8369 9.12138 12.0669 9.33696 12.1914C9.55255 12.3159 9.81818 12.3159 10.0338 12.1915L15.3823 9.10356C15.5978 8.97902 15.7306 8.74896 15.7306 8.5Z" fill="#002F6D"/>
</svg>
